<svg style="position: absolute; width: 0; height: 0; overflow: hidden;" aria-hidden="true" version="1.1" xmlns="http://www.w3.org/2000/svg" xmlns:xlink="http://www.w3.org/1999/xlink">
    <style>
        .default-palette, .palette0 {color: currentColor;
            --color0: #212121;
            --color1: #2196f3;
            --color2: #f5f4fa;
        }
    </style>
    <defs>
        <symbol id="Group4" viewBox="0 0 270 120" fill="none">
            <rect fill="var(--color2, #f5f4fa)" width="270" height="120" rx="4" />
            <g fill="var(--color1, #2196f3)" clip-path="url(#clip0_11_3280)">
                <path d="M169.943 34.8964c-0.137-0.4213-0.501-0.7292-0.941-0.7934l-4.179-0.6079-1.87-3.787c-0.392-0.7981-1.7-0.7981-2.092 0l-1.87 3.787-4.18 0.608c-0.439 0.0641-0.803 0.3711-0.942 0.7934-0.137 0.4223-0.024 0.8866 0.295 1.1959l3.025 2.9483-0.714 4.1627c-0.074 0.4375 0.105 0.8797 0.463 1.1411 0.363 0.2637 0.837 0.2962 1.23 0.0886l3.738-1.9659 3.738 1.9659c0.171 0.0898 0.358 0.1341 0.544 0.1341 0.241 0 0.483-0.0747 0.686-0.2229 0.359-0.2612 0.539-0.7035 0.463-1.141l-0.714-4.1628 3.025-2.9482c0.317-0.3104 0.432-0.7736 0.295-1.1959zM164.556 37.7991c-0.274 0.2671-0.401 0.6545-0.335 1.0325l0.417 2.4372-2.188-1.1504c-0.17-0.0898-0.357-0.1341-0.544-0.1341-0.186 0-0.372 0.0443-0.544 0.1341l-2.188 1.1504 0.417-2.4372c0.066-0.378-0.06-0.7641-0.335-1.0325l-1.772-1.7267 2.448-0.3558c0.38-0.0549 0.708-0.294 0.879-0.6383l1.094-2.2166 1.094 2.2166c0.171 0.3442 0.498 0.5834 0.879 0.6383l2.447 0.3558z" />
                <path d="M157.167 69.8923h-2.333v2.3334h2.333z" />
                <path d="M157.167 74.5591h-2.333v2.3334h2.333z" />
                <path d="M159.5 72.2257h-2.333v2.3334h2.333z" />
                <path d="M154.834 72.2257H152.5v2.3334h2.334z" />
                <path d="M149 82.7259h-2.333v2.3334H149z" />
                <path d="M149 87.3926h-2.333v2.3334H149z" />
                <path d="M151.334 85.0593H149v2.3334h2.334z" />
                <path d="M146.667 85.0593h-2.334v2.3334h2.334z" />
                <path d="M135 78.0592h-2.333v2.3334H135z" />
                <path d="M135 82.7259h-2.333v2.3334H135z" />
                <path d="M137.333 80.3925H135v2.3334h2.333z" />
                <path d="M132.667 80.3925h-2.334v2.3334h2.334z" />
                <path d="M112.833 38.3918H110.5v2.3334h2.333z" />
                <path d="M112.833 43.0587H110.5v2.3334h2.333z" />
                <path d="M115.166 40.7252h-2.333v2.3334h2.333z" />
                <path d="M110.5 40.7252h-2.334v2.3334h2.334z" />
                <path fill="var(--color0, #212121)" d="M154.064 55.9738c-0.629-0.8482-1.552-1.3941-2.6-1.5412-1.052-0.1493-2.091 0.1271-2.931 0.77l-2.738 2.0988-1e-3 12e-4-4.151 3.0999-2.971-1.1831c5.297-2.3765 8.999-7.6744 8.999-13.8252 0-8.3628-6.831-15.1668-15.227-15.1668-8.397 0-15.228 6.804-15.228 15.1668 0 3.0311 0.907 5.8497 2.45 8.2216l-6.046-0.0525c-3e-3 0-7e-3 0-0.01 0-0.019 0-0.034 93e-4-0.051 0.0105-0.116 47e-4-0.229 0.028-0.34 0.0677-0.028 0.0105-0.057 0.0164-0.084 0.0291-0.014 59e-4-0.028 7e-3-0.042 0.014l-7.072 3.4918c-1e-3 0-3e-3 0-3e-3 11e-4l-4.141 1.9918c-0.046 0.0198-0.093 0.0466-0.138 0.0769-1.651 1.099-2.2133 3.2574-1.309 5.0214 0.482 0.938 1.302 1.6287 2.31 1.9448 0.389 0.1213 0.785 0.1809 1.18 0.1809 0.633 0 1.261-0.1552 1.836-0.462l3.036-1.6146 4.952-2.5574 2.968-0.0175-11.904 11.8466c-1e-3 12e-4-2e-3 12e-4-3e-3 23e-4l-2.929 2.9167c-0.691 0.6884-1.072 1.6018-1.072 2.5761 0 0.973 0.381 1.8888 1.072 2.5784 0.711 0.707 1.646 1.0616 2.58 1.0616 0.936 0 1.869-0.3546 2.582-1.0616l2.875-2.8631 3.808-2.8432 1.97 1.9623-3.853 3.8372c-2e-3 13e-4-3e-3 13e-4-4e-3 24e-4l-2.928 2.9166c-0.692 0.6884-1.073 1.6018-1.073 2.5761 0 0.9731 0.381 1.8888 1.073 2.5784 0.71 0.707 1.646 1.0617 2.58 1.0617 0.935 0 1.871-0.3547 2.582-1.0617l2.93-2.9166 4.686-4.6667c1e-3-13e-4 1e-3-24e-4 3e-3-36e-4l2.208-2.1875-8e-3-82e-4c0.014-0.014 0.034-0.0188 0.048-0.0338l11.3-12.3773 7.593 1.0803c0.055 82e-4 0.11 0.0117 0.165 0.0117 0.141 0 0.277-0.0338 0.409-0.084 0.039-0.0139 0.072-0.0327 0.109-0.0513 0.042-0.021 0.086-0.0326 0.126-0.0594l7.029-4.6667c0.026-0.0175 0.04-0.0456 0.064-0.0642 0.028-0.0221 0.063-0.0314 0.089-0.056l2.781-2.6052c1.447-1.356 1.647-3.5773 0.464-5.1663zM104.66 63.8722c-0.379 0.203-0.809 0.2437-1.221 0.1132-0.409-0.1272-0.74-0.4061-0.934-0.7829-0.352-0.6861-0.148-1.5214 0.469-1.9729l2.874-1.3825 0.692 2.0218 0.29 0.8493zM112.31 59.874l-3.387 1.7501-0.558-1.6334-0.402-1.1738 4.434-2.1887zM145.34 45.3919c0 2.009-0.479 3.9038-1.31 5.5988l-9.147-4.1545c-0.095-1.2541-0.746-2.352-1.724-3.0357l3.202-10.632c5.202 1.6545 8.979 6.5067 8.979 12.2234zM119.552 45.3919c0-7.076 5.784-12.8336 12.894-12.8336 0.553 0 1.094 0.0466 1.63 0.1143l-3.133 10.3987c-0.042-12e-4-0.081-0.0128-0.124-0.0128-2.259 0-4.097 1.8316-4.097 4.0834 0 2.2517 1.838 4.0835 4.097 4.0835 1.519 0 2.831-0.8388 3.539-2.0663l8.449 3.8384c-2.351 3.164-6.113 5.228-10.361 5.228-7.11 0-12.894-5.7576-12.894-12.8336zM132.581 47.1419c0 0.9649-0.791 1.75-1.762 1.75-0.972 0-1.763-0.7851-1.763-1.75 0-0.9648 0.791-1.75 1.763-1.75 0.971 0 1.762 0.7852 1.762 1.75zM105.392 80.0074c-0.517 0.5122-1.354 0.5111-1.869 13e-4-0.249-0.2486-0.385-0.5763-0.385-0.9252 0-0.3477 0.136-0.6756 0.385-0.9217l2.104-2.0966 1.862 1.8539zM112.422 88.1743c-0.517 0.5122-1.354 0.5134-1.87 12e-4-0.249-0.2485-0.385-0.5762-0.385-0.9252 0-0.3476 0.136-0.6755 0.385-0.9216l2.106-2.0977 0.881 0.8763 0.982 0.9776zM120.038 80.5862c-1e-3 11e-4-2e-3 11e-4-3e-3 23e-4l-3.861 3.85-0.881-0.8762-0.982-0.9777 3.857-3.8395c0 0 0 0 0-11e-4 1e-3-12e-4 2e-3-12e-4 4e-3-23e-4 0.087-0.0875 0.142-0.1925 0.196-0.2963 0.015-0.0304 0.044-0.0561 0.057-0.0875 0.036-0.0898 0.042-0.1866 0.056-0.2812 7e-3-0.0538 0.03-0.1038 0.03-0.1588 0-0.0782-0.028-0.1539-0.044-0.231-0.014-0.07-0.014-0.1413-0.041-0.2088-0.044-0.1097-0.12-0.2065-0.199-0.3011-0.023-0.0257-0.031-0.0584-0.055-0.0828 0 0 0 0-2e-3 0-1e-3-11e-4-1e-3-36e-4-2e-3-47e-4l-3.515-3.5c-0.037-0.0374-0.085-0.0525-0.127-0.084-0.062-0.0478-0.121-0.0921-0.19-0.126-0.067-0.0327-0.135-0.0525-0.205-0.0713-0.074-0.021-0.147-0.0373-0.225-0.0432-0.071-46e-4-0.137 24e-4-0.208 0.0106-0.079 93e-4-0.152 0.0198-0.228 0.0443-0.074 0.0233-0.139 0.0594-0.206 0.098-0.044 0.0245-0.093 0.0327-0.133 0.063l-3.88 2.8958-1.97-1.9624 5.248-5.2197 9.538 9.3814zM134.954 65.2372c-0.033-47e-4-0.065 82e-4-0.099 59e-4-0.085-47e-4-0.166 12e-4-0.252 0.0151-0.066 0.0117-0.129 0.0245-0.192 0.0467-0.075 0.0257-0.142 0.0607-0.211 0.1026-0.066 0.0397-0.125 0.0817-0.182 0.1342-0.028 0.0244-0.062 0.0362-0.088 0.0641L123.653 76.862l-9.468-9.3114 6.197-6.1647c0.457-0.455 0.459-1.1936 4e-3-1.6509-0.23-0.2298-0.532-0.343-0.834-0.3418v-11e-4l-4.854 0.0291 0.061-3.5163 6.79 0.0584c2.768 2.8304 6.627 4.5956 10.897 4.5956 0.957 0 1.89-0.0991 2.799-0.2684 0.087 0.07 0.174 0.1412 0.283 0.1855l5.272 2.1001 0.333 1.6589 0.39 1.9367zM143.794 65.6269l-0.684-3.408 3.164-2.3625 0.828 1.099 1.243 1.6496zM152.005 59.4341l-1.832 1.7173-2.037-2.7043 1.818-1.3942c0.34-0.2612 0.768-0.3675 1.188-0.3126 0.422 0.0594 0.796 0.28 1.05 0.6218 0.474 0.6382 0.393 1.5284-0.187 2.072z" />
                <path fill="var(--color0, #212121)" d="M129.755 65.5651l-4.688-4.6667c-0.454-0.4538-1.191-0.4538-1.646 0l-4.687 4.6667c-0.219 0.2205-0.343 0.5168-0.343 0.8271 0 0.3104 0.122 0.6079 0.343 0.8272l4.687 4.6667c0.227 0.2263 0.526 0.3395 0.823 0.3395 0.298 0 0.596-0.1132 0.823-0.3395l4.688-4.6667c0.219-0.2193 0.344-0.5168 0.344-0.8272 0-0.3103-0.124-0.6078-0.344-0.8271zM124.244 69.4128l-3.033-3.0206 3.033-3.0205 3.035 3.0205z" />
                <path fill="var(--color0, #212121)" d="M137.547 36.0923l-0.564 2.2657c0.155 0.0386 3.801 0.9882 3.801 4.7006h2.334c0-4.4125-3.644-6.4868-5.571-6.9663z" />
                <path fill="var(--color0, #212121)" d="M143.118 45.3919h-2.334v2.3334h2.334z" />
            </g>
            <defs>
                <clipPath id="clip0_11_3280">
                    <rect fill="#fff" transform="translate(100 25)" width="70" height="70" />
                </clipPath>
            </defs>
        </symbol>
        <symbol id="Group3" viewBox="0 0 270 120" fill="none">
            <rect fill="var(--color2, #f5f4fa)" width="270" height="120" rx="4" />
            <g fill="var(--color1, #2196f3)" clip-path="url(#clip0_11_3280)">
                <path d="M132.65 57.7351h2.332v10.4945h-2.332z" />
                <path d="M141.978 62.3993h2.332v5.8303h-2.332z" />
                <path d="M123.321 65.8975h2.332v2.3321h-2.332z" />
                <path d="M116.325 64.7314h2.332v3.4981h-2.332z" />
                <path fill="var(--color0, #212121)" d="M103.498 86.8865h55.971c1.932 0 3.498-1.5663 3.498-3.4982v-4.6642c0-1.9318-1.566-3.4982-3.498-3.4982h-1.166v-29.079l6.623-6.2744c1.537 0.7578 3.398 0.2977 4.404-1.0909 1.007-1.3881 0.866-3.2995-0.333-4.5248-1.199-1.2252-3.107-1.408-4.517-0.4327-1.41 0.9759-1.911 2.8258-1.187 4.3796l-4.99 4.7308v-2.6902c0-1.9319-1.567-3.4982-3.498-3.4982h-46.643c-1.931 0-3.498 1.5663-3.498 3.4982v34.9816h-1.166c-1.932 0-3.498 1.5664-3.498 3.4982v4.6642c0 1.9319 1.566 3.4982 3.498 3.4982zM166.465 35.58c0.644 0 1.166 0.5221 1.166 1.1661 0 0.6439-0.522 1.166-1.166 1.166s-1.166-0.5221-1.166-1.166c0-0.644 0.522-1.1661 1.166-1.1661zM106.996 40.2443c0-0.644 0.522-1.1661 1.166-1.1661h46.643c0.644 0 1.166 0.5221 1.166 1.1661v4.8971l-2.332 2.2159v-4.7809c0-0.644-0.523-1.1661-1.166-1.1661h-41.978c-0.644 0-1.167 0.5221-1.167 1.1661v29.1514c0 0.6439 0.523 1.166 1.167 1.166h41.978c0.643 0 1.166-0.5221 1.166-1.166V50.5651l2.332-2.2097v26.8705h-48.975zM117.491 55.403c-1.578-46e-4-2.963 1.0465-3.383 2.5673-0.419 1.5207 0.23 3.1337 1.587 3.9388 1.356 0.8051 3.084 0.603 4.218-0.4942l4.053 2.0338c0.471 0.2357 1.042 0.1252 1.392-0.2682l8.616-9.6934 8.47 6.3467c0.455 0.3405 1.089 0.304 1.501-0.086l7.361-6.973v17.7869h-39.645V43.7424h39.645v5.8195l-8.25 7.8128-8.541-6.4031c-0.485-0.3632-1.167-0.2949-1.571 0.1578l-8.734 9.8277-3.265-1.6329c0.024-0.1401 0.038-0.2813 0.044-0.423 0-1.9319-1.566-3.4982-3.498-3.4982zM118.657 58.9012c0 0.6439-0.522 1.166-1.166 1.166s-1.166-0.5221-1.166-1.166c0-0.644 0.522-1.1661 1.166-1.1661s1.166 0.5221 1.166 1.1661zM125.653 77.5581h11.661v1.166c0 0.644-0.522 1.1661-1.166 1.1661h-9.329c-0.644 0-1.166-0.5221-1.166-1.1661zM102.332 78.7241c0-0.6439 0.522-1.166 1.166-1.166h19.823v1.166c0 1.9319 1.566 3.4982 3.498 3.4982h9.329c1.932 0 3.498-1.5663 3.498-3.4982v-1.166h19.823c0.644 0 1.166 0.5221 1.166 1.166v4.6642c0 0.644-0.522 1.1661-1.166 1.1661h-55.971c-0.644 0-1.166-0.5221-1.166-1.1661z" />
            </g>
        </symbol>
        <symbol id="Group2" viewBox="0 0 270 120" fill="var(--color1, #2196f3)">
            <rect fill="var(--color2, #f5f4fa)" width="270" height="120" rx="4" />
            <path fill="var(--color0, #212121)" d="M168.461 58.4715C168.458 39.9819 153.466 24.9963 134.975 25c-18.489 37e-4-33.475 14.9963-33.471 33.4859 3e-3 14.5643 9.421 27.4554 23.296 31.8854 0.132 0.0417 0.27 0.063 0.408 0.0625 0.264-5e-4 0.522-0.071 0.749-0.2051 0.296-0.1746 0.516-0.4523 0.62-0.7797l8.455-26.7969c2.311-0.0117 4.175-1.8953 4.162-4.2062-0.011-2.3114-1.894-4.1753-4.206-4.1635-0.621 26e-4-1.235 0.1458-1.794 0.4187l-11.169-11.1709c-0.554-0.5351-1.437-0.5196-1.972 0.0342-0.523 0.541-0.523 1.3976 0 1.9386l11.163 11.1762c-0.856 1.7485-0.367 3.8591 1.174 5.0511l-8.056 25.5344c-15.92-5.8645-24.072-23.5242-18.208-39.4444 5.865-15.9203 23.524-24.0721 39.445-18.2076 15.92 5.8644 24.072 23.5247 18.207 39.4444-2.865 7.778-8.752 14.0681-16.323 17.4418l-0.871-4.1c-0.159-0.7535-0.9-1.2353-1.653-1.0756-0.238 0.0508-0.458 0.1624-0.64 0.3242l-8.393 7.4934c-0.576 0.5121-0.627 1.3938-0.115 1.9696 0.167 0.1869 0.381 0.3257 0.62 0.4021l10.716 3.4201c0.733 0.2355 1.519-0.1677 1.754-0.9015 0.075-0.2318 0.087-0.4785 0.037-0.7167l-0.855-4.023c12.39-5.2237 20.435-17.3735 20.406-30.82zM134.983 57.0766c0.77 0 1.395 0.6248 1.395 1.3949 0 0.7707-0.625 1.395-1.395 1.395-0.771 0-1.395-0.6243-1.395-1.395 0-0.7701 0.624-1.3949 1.395-1.3949zM139.577 89.5916l4.778-4.2618 1.319 6.2132z" />
            <path d="M133.588 31.9673v2.7899c0 0.7706 0.624 1.395 1.395 1.395 0.77 0 1.395-0.6244 1.395-1.395v-2.7899c0-0.7701-0.625-1.395-1.395-1.395-0.771 0-1.395 0.6249-1.395 1.395z" />
            <path d="M108.479 57.0765c-0.771 0-1.395 0.6249-1.395 1.395 0 0.7706 0.624 1.395 1.395 1.395h2.79c0.77 0 1.395-0.6244 1.395-1.395 0-0.7701-0.625-1.395-1.395-1.395z" />
            <path d="M161.487 59.8665c0.77 0 1.394-0.6244 1.394-1.395 0-0.7701-0.624-1.395-1.394-1.395h-2.79c-0.771 0-1.395 0.6249-1.395 1.395 0 0.7706 0.624 1.395 1.395 1.395z" />
        </symbol>
        <symbol id="Group1" viewBox="0 0 270 120" fill="none">
            <rect fill="var(--color2, #f5f4fa)" width="270" height="120" rx="4" />
            <path fill="var(--color0, #212121)" d="M167.316 73.3385 148.847 54.7337l2.05-10.0964c0.529 0.2065 1.091 0.3144 1.659 0.3185h0.014c2.608 0.0308 4.747-2.0584 4.778-4.6665s-2.059-4.7473-4.667-4.7782c-2.608-0.0308-4.747 2.0584-4.778 4.6665-6e-3 0.5581 0.086 1.1129 0.273 1.6387l-10.85 1.3242L119.628 25.35c-0.218-0.2215-0.514-0.3475-0.824-0.35-0.306 16e-4-0.6 0.1235-0.817 0.3395l-3.308 3.29c-0.456 0.4556-0.456 1.1941 0 1.6497l1.78 1.806c-6.897 12.6829-4.657 28.3889 5.511 38.6376 0.094 0.0893 0.202 0.1615 0.32 0.2135-0.074 0.3948-0.112 0.7954-0.114 1.197v13.5334h-14c-3.22 38e-4-5.83 2.6133-5.834 5.8333v2.3333c0 0.6443 0.523 1.1667 1.167 1.1667h53.667c0.644 0 1.166-0.5224 1.166-1.1667V91.5c-4e-3-3.22-2.613-5.8295-5.833-5.8333h-14v-5.9979c2.193 0.46 4.428 0.6945 6.669 0.7 5.377-58e-4 10.668-1.3463 15.4-3.9013l1.789 1.8002c0.217 0.2215 0.514 0.3475 0.824 0.35 0.306-16e-4 0.599-0.1236 0.817-0.3395l3.308-3.29c0.456-0.4556 0.456-1.1941 0-1.6497zM150.925 38.6348c0.913-0.9088 2.391-0.9047 3.299 89e-4 0.909 0.9137 0.905 2.3911-9e-3 3.2998-0.437 0.435-1.029 0.6791-1.646 0.679h-7e-3c-1.288-67e-4-2.327-1.0567-2.321-2.3454 3e-3-0.6169 0.251-1.2072 0.688-1.6423zM148.178 46.301l-1.309 6.4435-2.571-2.5865zM146.853 44.3282l-4.2 4.1755-3.249-3.2667zM152.509 88c1.933 0 3.5 1.567 3.5 3.5v1.1667h-51.333V91.5c0-1.933 1.567-3.5 3.5-3.5zM136.176 83.3333v2.3334h-11.667v-2.3334zM124.509 81v-8.8667c0-2.8303 2.617-5.1333 5.833-5.1333 3.217 0 5.834 2.303 5.834 5.1333V81zM138.509 77.29v-5.1567c0-4.1171-3.663-7.4666-8.167-7.4666-2.911-0.0447-5.634 1.4374-7.177 3.9071-8.876-9.3489-10.875-23.2863-4.984-34.7531l40.691 40.9248c-6.283 3.1964-13.486 4.0963-20.363 2.5445zM163.204 75.7943l-1.644-1.6531-42.768-43.0255-1.651-1.6544 1.651-1.645 17.358 17.4557c8e-3 0 0.013 0.0152 0.021 0.021l28.688 28.8563z" />
            <path fill="var(--color1, #2196f3)" d="M130.353 69.3333h-0.011c-1.933-29e-4-3.502 1.5617-3.505 3.4948-3e-3 1.933 1.562 3.5023 3.495 3.5052h0.01c1.933 29e-4 3.503-1.5617 3.506-3.4947 2e-3-1.9331-1.562-3.5024-3.495-3.5053zM131.169 73.6605c-0.219 0.2184-0.517 0.3407-0.827 0.3395-0.644-34e-4-1.164-0.5284-1.16-1.1727 1e-3-0.3084 0.125-0.6036 0.344-0.8211 0.217-0.216 0.51-0.3379 0.816-0.3395 0.645 33e-4 1.164 0.5283 1.161 1.1726-2e-3 0.3084-0.125 0.6036-0.344 0.8212z" />
        </symbol>
    </defs>
</svg>