<svg width="24" height="20" viewBox="0 0 24 20" fill="none" xmlns="http://www.w3.org/2000/svg">
<g filter="url(#filter0_d_11_3372)">
<path d="M18.5 0H5.50001C4.67285 0 4 0.672853 4 1.50001V10.5C4 11.3271 4.67285 12 5.50001 12H18.5C19.3271 12 20 11.3271 20 10.5V1.50001C20 0.672853 19.3271 0 18.5 0V0ZM18.5 0.999994C18.5679 0.999994 18.6325 1.01409 18.6916 1.0387L12 6.83838L5.30833 1.0387C5.36742 1.01412 5.43204 0.999994 5.49998 0.999994H18.5ZM18.5 11H5.50001C5.22414 11 5 10.7759 5 10.5V2.09521L11.6724 7.87792C11.7666 7.95944 11.8833 7.99999 12 7.99999C12.1167 7.99999 12.2334 7.95948 12.3276 7.87792L19 2.09521V10.5C19 10.7759 18.7759 11 18.5 11V11Z" fill="#757575"/>
<path d="M12 7.5L18.6729 1.71777L18.7461 1.65234L12.3271 7.21582L12 7.5ZM12 7.5L5.32715 1.71777L4.98047 1.41699L11.6729 7.21582L12 7.5ZM5.39844 0.504883C5.33162 0.511774 5.26736 0.525945 5.20605 0.544922L5.11621 0.577148C5.20469 0.540173 5.29937 0.51494 5.39844 0.504883ZM18.6016 0.504883C18.7006 0.51494 18.7953 0.540173 18.8838 0.577148C18.7965 0.540804 18.7017 0.515208 18.6016 0.504883Z" stroke="black"/>
</g>
<defs>
<filter id="filter0_d_11_3372" x="0" y="0" width="24" height="20" filterUnits="userSpaceOnUse" color-interpolation-filters="sRGB">
<feFlood flood-opacity="0" result="BackgroundImageFix"/>
<feColorMatrix in="SourceAlpha" type="matrix" values="0 0 0 0 0 0 0 0 0 0 0 0 0 0 0 0 0 0 127 0" result="hardAlpha"/>
<feOffset dy="4"/>
<feGaussianBlur stdDeviation="2"/>
<feComposite in2="hardAlpha" operator="out"/>
<feColorMatrix type="matrix" values="0 0 0 0 0 0 0 0 0 0 0 0 0 0 0 0 0 0 0.25 0"/>
<feBlend mode="normal" in2="BackgroundImageFix" result="effect1_dropShadow_11_3372"/>
<feBlend mode="normal" in="SourceGraphic" in2="effect1_dropShadow_11_3372" result="shape"/>
</filter>
</defs>
</svg>
