<svg viewBox="0 0 270 120" fill="none" width="72" height="32" xmlns="http://www.w3.org/2000/svg" xmlns:xlink="http://www.w3.org/1999/xlink">
    <style>
        :root, .palette0 {color: currentColor;
            --color0: #212121;
            --color1: #2196f3;
            --color2: #f5f4fa;
        }
    </style>
    <rect fill="var(--color2, #f5f4fa)" width="270" height="120" rx="4" />
    <g fill="var(--color1, #2196f3)" clip-path="url(#Group3_clip0_11_3269)">
        <path d="M132.65 57.7351h2.332v10.4945h-2.332z" />
        <path d="M141.978 62.3993h2.332v5.8303h-2.332z" />
        <path d="M123.321 65.8975h2.332v2.3321h-2.332z" />
        <path d="M116.325 64.7314h2.332v3.4981h-2.332z" />
        <path fill="var(--color0, #212121)" d="M103.498 86.8865h55.971c1.932 0 3.498-1.5663 3.498-3.4982v-4.6642c0-1.9318-1.566-3.4982-3.498-3.4982h-1.166v-29.079l6.623-6.2744c1.537 0.7578 3.398 0.2977 4.404-1.0909 1.007-1.3881 0.866-3.2995-0.333-4.5248-1.199-1.2252-3.107-1.408-4.517-0.4327-1.41 0.9759-1.911 2.8258-1.187 4.3796l-4.99 4.7308v-2.6902c0-1.9319-1.567-3.4982-3.498-3.4982h-46.643c-1.931 0-3.498 1.5663-3.498 3.4982v34.9816h-1.166c-1.932 0-3.498 1.5664-3.498 3.4982v4.6642c0 1.9319 1.566 3.4982 3.498 3.4982zM166.465 35.58c0.644 0 1.166 0.5221 1.166 1.1661 0 0.6439-0.522 1.166-1.166 1.166s-1.166-0.5221-1.166-1.166c0-0.644 0.522-1.1661 1.166-1.1661zM106.996 40.2443c0-0.644 0.522-1.1661 1.166-1.1661h46.643c0.644 0 1.166 0.5221 1.166 1.1661v4.8971l-2.332 2.2159v-4.7809c0-0.644-0.523-1.1661-1.166-1.1661h-41.978c-0.644 0-1.167 0.5221-1.167 1.1661v29.1514c0 0.6439 0.523 1.166 1.167 1.166h41.978c0.643 0 1.166-0.5221 1.166-1.166V50.5651l2.332-2.2097v26.8705h-48.975zM117.491 55.403c-1.578-46e-4-2.963 1.0465-3.383 2.5673-0.419 1.5207 0.23 3.1337 1.587 3.9388 1.356 0.8051 3.084 0.603 4.218-0.4942l4.053 2.0338c0.471 0.2357 1.042 0.1252 1.392-0.2682l8.616-9.6934 8.47 6.3467c0.455 0.3405 1.089 0.304 1.501-0.086l7.361-6.973v17.7869h-39.645V43.7424h39.645v5.8195l-8.25 7.8128-8.541-6.4031c-0.485-0.3632-1.167-0.2949-1.571 0.1578l-8.734 9.8277-3.265-1.6329c0.024-0.1401 0.038-0.2813 0.044-0.423 0-1.9319-1.566-3.4982-3.498-3.4982zM118.657 58.9012c0 0.6439-0.522 1.166-1.166 1.166s-1.166-0.5221-1.166-1.166c0-0.644 0.522-1.1661 1.166-1.1661s1.166 0.5221 1.166 1.1661zM125.653 77.5581h11.661v1.166c0 0.644-0.522 1.1661-1.166 1.1661h-9.329c-0.644 0-1.166-0.5221-1.166-1.1661zM102.332 78.7241c0-0.6439 0.522-1.166 1.166-1.166h19.823v1.166c0 1.9319 1.566 3.4982 3.498 3.4982h9.329c1.932 0 3.498-1.5663 3.498-3.4982v-1.166h19.823c0.644 0 1.166 0.5221 1.166 1.166v4.6642c0 0.644-0.522 1.1661-1.166 1.1661h-55.971c-0.644 0-1.166-0.5221-1.166-1.1661z" />
    </g>
    <defs>
        <clipPath id="Group3_clip0_11_3269">
            <rect fill="#fff" transform="translate(100 25)" width="70" height="70" />
        </clipPath>
    </defs>
</svg>