<svg viewBox="0 0 270 120" fill="none" width="72" height="32" xmlns="http://www.w3.org/2000/svg" xmlns:xlink="http://www.w3.org/1999/xlink">
    <style>
        :root, .palette0 {color: currentColor;
            --color0: #212121;
            --color1: #2196f3;
            --color2: #f5f4fa;
        }
    </style>
    <rect fill="var(--color2, #f5f4fa)" width="270" height="120" rx="4" />
    <path fill="var(--color0, #212121)" d="M167.316 73.3385 148.847 54.7337l2.05-10.0964c0.529 0.2065 1.091 0.3144 1.659 0.3185h0.014c2.608 0.0308 4.747-2.0584 4.778-4.6665s-2.059-4.7473-4.667-4.7782c-2.608-0.0308-4.747 2.0584-4.778 4.6665-6e-3 0.5581 0.086 1.1129 0.273 1.6387l-10.85 1.3242L119.628 25.35c-0.218-0.2215-0.514-0.3475-0.824-0.35-0.306 16e-4-0.6 0.1235-0.817 0.3395l-3.308 3.29c-0.456 0.4556-0.456 1.1941 0 1.6497l1.78 1.806c-6.897 12.6829-4.657 28.3889 5.511 38.6376 0.094 0.0893 0.202 0.1615 0.32 0.2135-0.074 0.3948-0.112 0.7954-0.114 1.197v13.5334h-14c-3.22 38e-4-5.83 2.6133-5.834 5.8333v2.3333c0 0.6443 0.523 1.1667 1.167 1.1667h53.667c0.644 0 1.166-0.5224 1.166-1.1667V91.5c-4e-3-3.22-2.613-5.8295-5.833-5.8333h-14v-5.9979c2.193 0.46 4.428 0.6945 6.669 0.7 5.377-58e-4 10.668-1.3463 15.4-3.9013l1.789 1.8002c0.217 0.2215 0.514 0.3475 0.824 0.35 0.306-16e-4 0.599-0.1236 0.817-0.3395l3.308-3.29c0.456-0.4556 0.456-1.1941 0-1.6497zM150.925 38.6348c0.913-0.9088 2.391-0.9047 3.299 89e-4 0.909 0.9137 0.905 2.3911-9e-3 3.2998-0.437 0.435-1.029 0.6791-1.646 0.679h-7e-3c-1.288-67e-4-2.327-1.0567-2.321-2.3454 3e-3-0.6169 0.251-1.2072 0.688-1.6423zM148.178 46.301l-1.309 6.4435-2.571-2.5865zM146.853 44.3282l-4.2 4.1755-3.249-3.2667zM152.509 88c1.933 0 3.5 1.567 3.5 3.5v1.1667h-51.333V91.5c0-1.933 1.567-3.5 3.5-3.5zM136.176 83.3333v2.3334h-11.667v-2.3334zM124.509 81v-8.8667c0-2.8303 2.617-5.1333 5.833-5.1333 3.217 0 5.834 2.303 5.834 5.1333V81zM138.509 77.29v-5.1567c0-4.1171-3.663-7.4666-8.167-7.4666-2.911-0.0447-5.634 1.4374-7.177 3.9071-8.876-9.3489-10.875-23.2863-4.984-34.7531l40.691 40.9248c-6.283 3.1964-13.486 4.0963-20.363 2.5445zM163.204 75.7943l-1.644-1.6531-42.768-43.0255-1.651-1.6544 1.651-1.645 17.358 17.4557c8e-3 0 0.013 0.0152 0.021 0.021l28.688 28.8563z" />
    <path fill="var(--color1, #2196f3)" d="M130.353 69.3333h-0.011c-1.933-29e-4-3.502 1.5617-3.505 3.4948-3e-3 1.933 1.562 3.5023 3.495 3.5052h0.01c1.933 29e-4 3.503-1.5617 3.506-3.4947 2e-3-1.9331-1.562-3.5024-3.495-3.5053zM131.169 73.6605c-0.219 0.2184-0.517 0.3407-0.827 0.3395-0.644-34e-4-1.164-0.5284-1.16-1.1727 1e-3-0.3084 0.125-0.6036 0.344-0.8211 0.217-0.216 0.51-0.3379 0.816-0.3395 0.645 33e-4 1.164 0.5283 1.161 1.1726-2e-3 0.3084-0.125 0.6036-0.344 0.8212z" />
</svg>