<svg viewBox="0 0 270 120" fill="var(--color1, #2196f3)" width="72" height="32" xmlns="http://www.w3.org/2000/svg" xmlns:xlink="http://www.w3.org/1999/xlink">
    <style>
        :root, .palette0 {color: currentColor;
            --color0: #212121;
            --color1: #2196f3;
            --color2: #f5f4fa;
        }
    </style>
    <rect fill="var(--color2, #f5f4fa)" width="270" height="120" rx="4" />
    <path fill="var(--color0, #212121)" d="M168.461 58.4715C168.458 39.9819 153.466 24.9963 134.975 25c-18.489 37e-4-33.475 14.9963-33.471 33.4859 3e-3 14.5643 9.421 27.4554 23.296 31.8854 0.132 0.0417 0.27 0.063 0.408 0.0625 0.264-5e-4 0.522-0.071 0.749-0.2051 0.296-0.1746 0.516-0.4523 0.62-0.7797l8.455-26.7969c2.311-0.0117 4.175-1.8953 4.162-4.2062-0.011-2.3114-1.894-4.1753-4.206-4.1635-0.621 26e-4-1.235 0.1458-1.794 0.4187l-11.169-11.1709c-0.554-0.5351-1.437-0.5196-1.972 0.0342-0.523 0.541-0.523 1.3976 0 1.9386l11.163 11.1762c-0.856 1.7485-0.367 3.8591 1.174 5.0511l-8.056 25.5344c-15.92-5.8645-24.072-23.5242-18.208-39.4444 5.865-15.9203 23.524-24.0721 39.445-18.2076 15.92 5.8644 24.072 23.5247 18.207 39.4444-2.865 7.778-8.752 14.0681-16.323 17.4418l-0.871-4.1c-0.159-0.7535-0.9-1.2353-1.653-1.0756-0.238 0.0508-0.458 0.1624-0.64 0.3242l-8.393 7.4934c-0.576 0.5121-0.627 1.3938-0.115 1.9696 0.167 0.1869 0.381 0.3257 0.62 0.4021l10.716 3.4201c0.733 0.2355 1.519-0.1677 1.754-0.9015 0.075-0.2318 0.087-0.4785 0.037-0.7167l-0.855-4.023c12.39-5.2237 20.435-17.3735 20.406-30.82zM134.983 57.0766c0.77 0 1.395 0.6248 1.395 1.3949 0 0.7707-0.625 1.395-1.395 1.395-0.771 0-1.395-0.6243-1.395-1.395 0-0.7701 0.624-1.3949 1.395-1.3949zM139.577 89.5916l4.778-4.2618 1.319 6.2132z" />
    <path d="M133.588 31.9673v2.7899c0 0.7706 0.624 1.395 1.395 1.395 0.77 0 1.395-0.6244 1.395-1.395v-2.7899c0-0.7701-0.625-1.395-1.395-1.395-0.771 0-1.395 0.6249-1.395 1.395z" />
    <path d="M108.479 57.0765c-0.771 0-1.395 0.6249-1.395 1.395 0 0.7706 0.624 1.395 1.395 1.395h2.79c0.77 0 1.395-0.6244 1.395-1.395 0-0.7701-0.625-1.395-1.395-1.395z" />
    <path d="M161.487 59.8665c0.77 0 1.394-0.6244 1.394-1.395 0-0.7701-0.624-1.395-1.394-1.395h-2.79c-0.771 0-1.395 0.6249-1.395 1.395 0 0.7706 0.624 1.395 1.395 1.395z" />
</svg>